<svg width="48" height="48" viewBox="0 0 48 48" fill="none" xmlns="http://www.w3.org/2000/svg">
<path d="M24 4C35.028 4 44 12.972 44 24C44 35.028 35.028 44 24 44C12.972 44 4 35.028 4 24C4 12.972 12.972 4 24 4ZM24 0C10.746 0 0 10.746 0 24C0 37.254 10.746 48 24 48C37.254 48 48 37.254 48 24C48 10.746 37.254 0 24 0ZM33 34.622L29.48 27.828L27.416 28.838C25.176 29.924 20.616 21.018 22.806 19.844L24.89 18.818L21.396 12L19.29 13.04C12.088 16.794 23.524 39.022 30.89 35.656L33 34.622Z" fill="white"/>
</svg>
